<svg width="1000" height="172" viewBox="0 0 1000 172" fill="none" xmlns="http://www.w3.org/2000/svg">
<path d="M61.6437 102.53C62.5037 103.59 63.4037 104.22 64.3337 104.42C69.9837 105.28 75.5637 105.52 81.0837 105.12C86.6037 104.72 92.1137 103.96 97.6337 102.83L92.3537 121.27C84.9737 122.53 77.9037 123.26 71.1237 123.46C64.3437 123.66 57.5337 123.26 50.6937 122.26C44.8437 121.53 40.8437 118.99 38.6837 114.63C36.5237 110.28 36.4437 104.31 38.4337 96.74C38.5037 96.34 38.5937 95.88 38.7337 95.35C38.8637 94.82 39.0937 93.97 39.4337 92.81C39.7637 91.65 40.2137 90.04 40.7837 87.97C41.3437 85.91 42.1437 83.14 43.1737 79.65C44.2037 76.16 45.5137 71.84 47.1137 66.69C48.7137 61.54 50.6337 55.31 52.8937 48H75.1237L62.5637 89.57C62.2337 91.3 61.8437 92.96 61.4137 94.55C60.9837 96.14 60.6937 97.81 60.5637 99.53C60.4337 100.46 60.7937 101.46 61.6637 102.52L61.6437 102.53Z" fill="white"/>
<path d="M157.42 91.32H129.31C128.98 92.85 128.58 94.38 128.11 95.91C127.64 97.44 127.31 98.97 127.11 100.5C126.98 101.43 127.28 102.33 128.01 103.19C128.74 104.06 129.57 104.55 130.5 104.69C136.15 105.55 141.83 105.9 147.55 105.74C153.26 105.58 158.88 104.96 164.4 103.9L159.12 122.34C145.3 124.47 131.41 124.76 117.45 123.24C114.33 122.91 111.78 121.88 109.82 120.15C107.86 118.42 106.38 116.33 105.38 113.87C104.38 111.41 103.8 108.75 103.64 105.9C103.47 103.04 103.62 100.35 104.09 97.83C105.02 92.78 106.23 87.81 107.73 82.93C109.23 78.05 111 73.28 113.06 68.63C112.13 68.96 111.15 69.23 110.12 69.43C109.09 69.63 108.03 69.89 106.93 70.23C105.83 70.56 104.7 71.04 103.54 71.67C102.38 72.3 101.2 73.25 100 74.51C99.8 74.71 99.63 74.81 99.5 74.81C99.17 75.01 98.8 75.03 98.4 74.86C98 74.7 97.9 74.41 98.1 74.01C100.09 70.16 102.37 66.63 104.93 63.44C107.49 60.25 110.36 57.51 113.55 55.22C116.74 52.93 120.28 51.15 124.17 49.89C128.06 48.63 132.36 48 137.08 48H179.94L174.56 65.84H142.86C141.53 65.84 140.43 66.26 139.57 67.09C138.71 67.92 137.96 68.94 137.33 70.13C136.7 71.33 136.13 72.57 135.64 73.87C135.14 75.17 134.56 76.28 133.9 77.21C134.5 77.14 135.21 77.09 136.04 77.06C136.87 77.03 138.22 77.01 140.08 77.01C141.94 77.01 144.68 77.03 148.1 77.06C151.52 77.09 156.09 77.11 161.81 77.11L157.42 91.36V91.32Z" fill="white"/>
<path d="M257.58 106.94L248.61 122.69H225.18L261.27 62.48C263.33 59.09 265.34 56.45 267.3 54.55C269.26 52.66 271.07 51.25 272.73 50.31C274.39 49.38 275.82 48.81 277.02 48.62C278.22 48.42 279.05 48.32 279.51 48.32H301.04V122.68H280.41V106.93H257.58V106.94ZM280.8 93.48V65.47L265.15 93.48H280.8Z" fill="white"/>
<path d="M359.73 103.15C360.43 103.88 361.27 104.35 362.27 104.54C367.85 105.34 373.42 105.72 378.97 105.69C384.52 105.66 390.02 105.11 395.47 104.05L390.19 122.49C376.37 124.62 362.51 124.91 348.62 123.39C345.5 123.06 342.95 122.03 340.99 120.3C339.03 118.57 337.55 116.48 336.55 114.02C335.55 111.56 334.95 108.9 334.76 106.05C334.56 103.19 334.69 100.5 335.16 97.98C335.69 95.19 336.36 92 337.15 88.41C337.95 84.82 338.96 81.18 340.19 77.49C341.42 73.8 342.86 70.2 344.53 66.68C346.19 63.16 348.17 60.02 350.46 57.26C352.75 54.5 355.36 52.29 358.29 50.63C361.21 48.97 364.54 48.14 368.26 48.14H412.32L406.94 65.98H373.95C372.95 65.98 372.02 66.26 371.16 66.83C370.3 67.4 369.63 68.11 369.17 68.97C366.38 73.82 364.12 78.92 362.39 84.27C360.66 89.62 359.5 95.09 358.9 100.67C358.77 101.6 359.05 102.43 359.75 103.16L359.73 103.15Z" fill="#FF3333"/>
<path d="M478.4 86.95C476.41 94.29 473.85 101.55 470.72 108.73C469.06 112.38 466.6 115.38 463.34 117.7C460.08 120.03 456.53 121.52 452.67 122.19C449.55 122.72 446.44 123.12 443.35 123.39C440.26 123.66 437.15 123.79 434.03 123.79C431.77 123.79 429.41 123.74 426.95 123.64C424.49 123.54 422.07 123.27 419.67 122.84C417.28 122.41 415.03 121.78 412.94 120.95C410.85 120.12 409.04 118.99 407.51 117.56C405.98 116.13 404.83 114.37 404.07 112.28C403.31 110.19 403.06 107.64 403.32 104.65C403.65 101.2 404.23 97.62 405.06 93.93C405.89 90.24 406.85 86.57 407.95 82.92C409.05 79.27 410.23 75.69 411.49 72.2C412.75 68.71 414.01 65.44 415.28 62.38C415.94 60.72 417.06 59.02 418.62 57.3C420.18 55.57 422.34 54 425.1 52.57C427.86 51.14 431.33 49.98 435.52 49.08C439.71 48.18 444.76 47.73 450.67 47.73C453.59 47.73 456.77 47.8 460.19 47.93C463.61 48.06 466.87 48.56 469.96 49.43C473.05 50.3 475.79 51.67 478.18 53.57C480.57 55.46 482.2 58.21 483.06 61.79V64.48C481.93 72.12 480.37 79.62 478.38 86.96L478.4 86.95ZM455.37 85.95C457.17 80.4 458.63 74.74 459.76 68.96C460.09 67.43 459.92 66.22 459.26 65.32C458.6 64.42 457.68 63.76 456.52 63.33C455.36 62.9 454.08 62.62 452.68 62.48C451.29 62.35 450.09 62.28 449.09 62.28C447.96 62.28 446.73 62.35 445.4 62.48C444.07 62.61 442.79 62.9 441.56 63.33C440.33 63.76 439.22 64.36 438.22 65.12C437.22 65.88 436.49 66.9 436.03 68.16C434.04 73.34 432.18 78.69 430.45 84.21C428.72 89.73 427.26 95.31 426.06 100.96C425.73 102.29 425.71 103.47 426.01 104.5C426.31 105.53 426.82 106.39 427.55 107.09C428.28 107.79 429.21 108.3 430.34 108.64C431.47 108.97 432.7 109.07 434.03 108.94C435.29 108.94 436.74 108.89 438.37 108.79C440 108.69 441.56 108.44 443.05 108.04C444.55 107.64 445.86 107.01 446.99 106.15C448.12 105.29 448.85 104.09 449.18 102.56C451.51 97.04 453.57 91.51 455.36 85.96L455.37 85.95Z" fill="#FF3333"/>
<path d="M526.14 106.54H521.25L514.47 71.05L498.92 122.69H476.89L499.22 48.43H521.55C522.75 48.43 523.94 48.61 525.14 48.98C526.34 49.35 527.43 49.88 528.43 50.58C529.43 51.28 530.27 52.09 530.97 53.02C531.67 53.95 532.15 55.01 532.42 56.21L535.71 73.26L549.96 55.32C551.69 53.19 553.78 51.52 556.24 50.29C558.7 49.06 561.22 48.45 563.82 48.45H583.86L561.63 122.71H539.3L554.65 71.97L526.14 106.56V106.54Z" fill="#FF3333"/>
<path d="M635.99 91.49H607.88C607.55 93.02 607.15 94.55 606.68 96.08C606.21 97.61 605.88 99.14 605.68 100.67C605.55 101.6 605.84 102.5 606.58 103.36C607.31 104.23 608.14 104.72 609.07 104.86C614.72 105.72 620.4 106.07 626.12 105.91C631.83 105.75 637.45 105.13 642.97 104.07L637.69 122.51C623.87 124.64 609.98 124.93 596.02 123.41C592.89 123.08 590.35 122.05 588.39 120.32C586.43 118.59 584.95 116.5 583.96 114.04C582.96 111.58 582.38 108.92 582.22 106.07C582.05 103.21 582.2 100.52 582.67 98C583.6 92.95 584.81 87.98 586.31 83.1C587.8 78.22 589.58 73.45 591.64 68.8C590.71 69.13 589.73 69.4 588.7 69.6C587.67 69.8 586.61 70.06 585.51 70.4C584.41 70.73 583.28 71.21 582.12 71.84C580.96 72.47 579.78 73.42 578.58 74.68C578.38 74.88 578.21 74.98 578.08 74.98C577.75 75.18 577.38 75.2 576.98 75.03C576.58 74.87 576.48 74.58 576.68 74.18C578.67 70.33 580.95 66.8 583.51 63.61C586.07 60.42 588.94 57.68 592.13 55.39C595.32 53.1 598.86 51.32 602.75 50.06C606.64 48.8 610.94 48.17 615.66 48.17H658.52L653.14 66.01H621.44C620.11 66.01 619.01 66.43 618.15 67.26C617.29 68.09 616.54 69.11 615.91 70.3C615.28 71.5 614.71 72.74 614.22 74.04C613.72 75.34 613.14 76.45 612.48 77.38C613.08 77.31 613.79 77.26 614.62 77.23C615.45 77.2 616.8 77.18 618.66 77.18C620.52 77.18 623.26 77.2 626.68 77.23C630.1 77.26 634.67 77.28 640.39 77.28L636 91.53L635.99 91.49Z" fill="#FF3333"/>
<path d="M690.71 101.55H676.95L670.57 122.68H649.04L671.47 48.42H709.05C711.57 48.42 714.1 48.75 716.63 49.42C719.16 50.09 721.42 51.11 723.41 52.51C725.4 53.9 727.03 55.67 728.3 57.79C729.56 59.92 730.19 62.41 730.19 65.27C730.19 69.19 729.64 73.05 728.55 76.83C727.45 80.62 725.81 84.17 723.62 87.5C722.09 89.89 720.28 92.17 718.19 94.33C716.1 96.49 713.79 98.23 711.26 99.56L718.84 122.69H697.91L690.73 101.56L690.71 101.55ZM692.51 86.3C694.37 86.3 695.91 86.17 697.15 85.9C698.38 85.64 699.41 85.27 700.24 84.8C701.07 84.34 701.77 83.79 702.33 83.16C702.89 82.53 703.48 81.88 704.07 81.22C705.6 79.56 706.78 77.7 707.61 75.64C708.44 73.58 708.86 71.39 708.86 69.06C708.86 68.26 708.71 67.43 708.41 66.57C708.11 65.71 707.7 64.93 707.16 64.23C706.63 63.53 705.98 62.97 705.22 62.54C704.46 62.11 703.61 61.89 702.68 61.89H688.92L681.54 86.31H692.5L692.51 86.3Z" fill="#FF3333"/>
<path d="M754.16 103.15C754.86 103.88 755.71 104.35 756.7 104.54C762.28 105.34 767.85 105.72 773.4 105.69C778.95 105.66 784.45 105.11 789.9 104.05L784.62 122.49C770.8 124.62 756.94 124.91 743.05 123.39C739.92 123.06 737.38 122.03 735.42 120.3C733.46 118.57 731.98 116.48 730.98 114.02C729.98 111.56 729.38 108.9 729.19 106.05C728.99 103.19 729.12 100.5 729.59 97.98C730.12 95.19 730.79 92 731.58 88.41C732.38 84.82 733.39 81.18 734.62 77.49C735.85 73.8 737.29 70.2 738.96 66.68C740.62 63.16 742.6 60.02 744.89 57.26C747.18 54.5 749.79 52.29 752.72 50.63C755.64 48.97 758.97 48.14 762.69 48.14H806.75L801.37 65.98H768.38C767.38 65.98 766.45 66.26 765.59 66.83C764.73 67.4 764.06 68.11 763.6 68.97C760.81 73.82 758.55 78.92 756.82 84.27C755.09 89.62 753.93 95.09 753.33 100.67C753.2 101.6 753.48 102.43 754.18 103.16L754.16 103.15Z" fill="#FF3333"/>
<path d="M817.71 48.42H839.94L817.51 122.68H794.98L817.71 48.42Z" fill="#FF3333"/>
<path d="M202.73 49H224.96L202.53 123.26H180L202.73 49Z" fill="white"/>
<path d="M862.76 106.94L853.79 122.69H830.36L866.45 62.48C868.51 59.09 870.52 56.45 872.48 54.55C874.44 52.66 876.25 51.25 877.91 50.31C879.57 49.38 881 48.81 882.2 48.62C883.4 48.43 884.23 48.32 884.69 48.32H906.22V122.68H885.59V106.93H862.76V106.94ZM885.99 93.48V65.47L870.34 93.48H885.99Z" fill="#FF3333"/>
<path d="M940.01 102.85C940.87 103.91 941.77 104.54 942.7 104.74C948.35 105.6 953.93 105.84 959.45 105.44C964.97 105.04 970.48 104.28 976 103.15L970.72 121.59C963.34 122.85 956.27 123.58 949.49 123.78C942.71 123.98 935.9 123.58 929.05 122.58C923.2 121.85 919.2 119.31 917.04 114.95C914.88 110.6 914.8 104.63 916.79 97.06C916.86 96.66 916.95 96.2 917.09 95.67C917.22 95.14 917.46 94.29 917.79 93.13C918.12 91.97 918.57 90.36 919.14 88.29C919.7 86.23 920.5 83.46 921.53 79.97C922.56 76.48 923.87 72.16 925.47 67.01C927.07 61.86 928.99 55.63 931.25 48.32H953.48L940.92 89.89C940.59 91.62 940.21 93.28 939.77 94.87C939.34 96.46 939.06 98.13 938.92 99.85C938.79 100.78 939.15 101.78 940.02 102.84L940.01 102.85Z" fill="#FF3333"/>
</svg>
