<svg width="297" height="297" viewBox="0 0 297 297" fill="none" xmlns="http://www.w3.org/2000/svg">
<path d="M73.2848 159.34C75.2004 161.702 77.1933 163.103 79.2604 163.546C91.7998 165.465 104.194 165.981 116.445 165.096C128.69 164.211 140.935 162.515 153.187 160.006L141.455 200.953C125.076 203.754 109.361 205.378 94.3124 205.821C79.2634 206.264 64.1342 205.378 48.9397 203.166C35.9549 201.544 27.0627 195.901 22.2691 186.234C17.4726 176.572 17.2884 163.326 21.7167 146.504C21.8622 145.619 22.082 144.589 22.382 143.406C22.676 142.227 23.1898 140.344 23.9323 137.763C24.6689 135.183 25.6638 131.604 26.9201 127.03C28.1735 122.459 29.9436 116.296 32.2335 108.548C34.5204 100.802 37.4339 91.2117 40.9771 79.7742C44.5174 68.3397 48.7971 54.5084 53.8135 38.2744H103.169L75.2806 130.567C74.5411 134.407 73.6917 138.093 72.7353 141.633C71.7731 145.174 71.1464 148.865 70.8553 152.7C70.5583 154.767 71.3692 156.982 73.2907 159.34H73.2848Z" fill="white"/>
<path d="M172.147 160.012C173.596 161.532 175.355 162.495 177.425 162.907C189.014 164.565 200.57 165.358 212.091 165.286C223.608 165.218 235.028 164.081 246.344 161.871L235.375 200.16C206.676 204.574 177.909 205.194 149.073 202.022C142.587 201.33 137.309 199.195 133.24 195.607C129.168 192.022 126.1 187.674 124.03 182.569C121.96 177.466 120.719 171.945 120.306 166.011C119.893 160.08 120.166 154.493 121.134 149.248C122.236 143.454 123.617 136.831 125.275 129.379C126.932 121.927 129.032 114.375 131.586 106.718C134.137 99.0614 137.137 91.577 140.588 84.2619C144.036 76.9497 148.141 70.4306 152.901 64.7044C157.662 58.9812 163.074 54.3926 169.147 50.9414C175.218 47.4933 182.114 45.7677 189.845 45.7677H281.321L270.145 82.8125H201.639C199.569 82.8125 197.636 83.4006 195.845 84.5708C194.051 85.7439 192.67 87.2289 191.704 89.0198C185.91 99.0941 181.217 109.685 177.63 120.79C174.039 131.898 171.627 143.246 170.386 154.835C170.107 156.768 170.698 158.491 172.144 160.009L172.147 160.012Z" fill="#FF3333"/>
<path d="M151.149 160.413C141.244 162.37 131.339 163.79 121.437 164.684C120.763 164.743 120.255 165.325 120.303 165.999C120.303 166.002 120.303 166.008 120.303 166.011C120.716 171.945 121.96 177.466 124.027 182.569C126.097 187.674 129.165 192.022 133.237 195.607C135.287 197.413 137.642 198.85 140.303 199.92C140.995 200.199 141.779 199.81 141.987 199.091L152.614 161.999C152.875 161.09 152.079 160.232 151.152 160.413H151.149Z" fill="black"/>
<path d="M25.9089 242.275C26.1495 242.572 26.402 242.75 26.6633 242.806C28.2463 243.047 29.8086 243.112 31.3559 243.002C32.9003 242.89 34.4477 242.676 35.9921 242.361L34.513 247.526C32.4459 247.879 30.4649 248.084 28.5641 248.14C26.6663 248.197 24.7566 248.084 22.838 247.805C21.1985 247.6 20.0788 246.887 19.473 245.669C18.8671 244.449 18.8433 242.78 19.4017 240.656C19.4195 240.543 19.4492 240.415 19.4848 240.264C19.5205 240.116 19.5858 239.878 19.6809 239.551C19.7729 239.225 19.9006 238.773 20.058 238.197C20.2155 237.621 20.4382 236.843 20.7293 235.865C21.0174 234.888 21.3856 233.677 21.8311 232.236C22.2766 230.793 22.8172 229.049 23.4498 227H29.6779L26.1584 238.645C26.0664 239.129 25.9594 239.596 25.8377 240.041C25.7159 240.487 25.6387 240.953 25.6001 241.437C25.5615 241.699 25.6654 241.978 25.906 242.275H25.9089Z" fill="white"/>
<path d="M52.6428 239.147H44.7663C44.6743 239.575 44.5614 240.003 44.4307 240.433C44.3001 240.861 44.208 241.289 44.1516 241.719C44.1129 241.981 44.1991 242.23 44.404 242.474C44.6089 242.717 44.8406 242.857 45.102 242.892C46.685 243.133 48.2769 243.231 49.8777 243.186C51.4785 243.139 53.0526 242.967 54.597 242.67L53.118 247.835C49.2451 248.429 45.3544 248.515 41.4459 248.087C40.5697 247.995 39.8599 247.707 39.3105 247.223C38.761 246.739 38.3482 246.154 38.069 245.464C37.7898 244.775 37.6265 244.03 37.5789 243.231C37.5314 242.432 37.573 241.678 37.7037 240.968C37.965 239.554 38.3036 238.161 38.7224 236.792C39.1412 235.423 39.6401 234.089 40.2163 232.786C39.9549 232.878 39.6817 232.952 39.3936 233.008C39.1055 233.065 38.8085 233.139 38.4996 233.231C38.1937 233.323 37.8759 233.46 37.5492 233.635C37.2225 233.813 36.8929 234.078 36.5573 234.431C36.5008 234.487 36.4533 234.514 36.4177 234.514C36.3256 234.571 36.2217 234.573 36.1118 234.529C35.9989 234.481 35.9722 234.404 36.0286 234.291C36.587 233.21 37.2255 232.224 37.9413 231.33C38.6571 230.436 39.4619 229.67 40.3559 229.026C41.2499 228.381 42.2418 227.885 43.3289 227.532C44.4189 227.178 45.6217 227 46.9463 227H58.954L57.4453 231.999H48.565C48.1937 231.999 47.8848 232.114 47.6443 232.349C47.4007 232.584 47.1928 232.866 47.0146 233.201C46.8364 233.537 46.679 233.884 46.5394 234.25C46.3998 234.612 46.2365 234.924 46.0494 235.185C46.2157 235.167 46.4177 235.153 46.6493 235.144C46.881 235.135 47.2582 235.129 47.7809 235.129C48.3036 235.129 49.0699 235.135 50.0292 235.144C50.9885 235.153 52.2686 235.159 53.8694 235.159L52.6398 239.153L52.6428 239.147Z" fill="white"/>
<path d="M80.5849 243.923L78.0722 248.337H71.5085L81.6184 231.47C82.1946 230.52 82.7589 229.78 83.3084 229.248C83.8578 228.717 84.3657 228.322 84.829 228.06C85.2953 227.799 85.6962 227.642 86.0289 227.585C86.3645 227.529 86.5961 227.502 86.7268 227.502H92.7589V248.334H86.9793V243.92H80.5849V243.923ZM87.0921 240.154V232.307L82.7084 240.154H87.0921Z" fill="white"/>
<path d="M109.201 242.863C109.397 243.068 109.635 243.198 109.914 243.255C111.479 243.478 113.038 243.585 114.591 243.576C116.145 243.567 117.686 243.412 119.213 243.115L117.734 248.28C113.861 248.874 109.979 248.96 106.088 248.533C105.212 248.441 104.502 248.152 103.953 247.668C103.403 247.184 102.991 246.599 102.711 245.91C102.432 245.221 102.266 244.476 102.21 243.677C102.153 242.878 102.192 242.123 102.322 241.413C102.471 240.632 102.658 239.738 102.881 238.732C103.103 237.728 103.389 236.706 103.733 235.672C104.078 234.639 104.482 233.629 104.948 232.643C105.414 231.657 105.967 230.778 106.608 230.003C107.25 229.231 107.98 228.613 108.8 228.146C109.62 227.68 110.549 227.449 111.592 227.449H123.935L122.426 232.447H113.184C112.904 232.447 112.643 232.527 112.403 232.685C112.159 232.842 111.975 233.044 111.844 233.285C111.063 234.645 110.43 236.073 109.946 237.57C109.462 239.07 109.136 240.6 108.969 242.165C108.931 242.426 109.011 242.658 109.207 242.863H109.201Z" fill="#FF3333"/>
<path d="M142.447 238.325C141.889 240.383 141.173 242.414 140.297 244.428C139.831 245.453 139.142 246.29 138.23 246.941C137.318 247.591 136.32 248.013 135.242 248.197C134.366 248.345 133.496 248.458 132.631 248.533C131.767 248.607 130.894 248.645 130.021 248.645C129.388 248.645 128.726 248.631 128.037 248.604C127.348 248.574 126.668 248.5 125.999 248.381C125.328 248.259 124.701 248.084 124.113 247.849C123.528 247.618 123.02 247.3 122.593 246.899C122.165 246.498 121.844 246.005 121.63 245.42C121.417 244.832 121.345 244.122 121.423 243.285C121.515 242.316 121.678 241.315 121.913 240.282C122.144 239.248 122.415 238.221 122.723 237.196C123.029 236.171 123.362 235.171 123.715 234.193C124.069 233.216 124.422 232.299 124.776 231.443C124.963 230.977 125.275 230.505 125.711 230.018C126.148 229.533 126.754 229.091 127.526 228.69C128.298 228.289 129.272 227.962 130.445 227.713C131.619 227.46 133.032 227.336 134.69 227.336C135.509 227.336 136.397 227.353 137.357 227.392C138.316 227.431 139.228 227.57 140.092 227.811C140.959 228.051 141.725 228.438 142.397 228.969C143.068 229.501 143.522 230.267 143.766 231.274V232.028C143.448 234.17 143.011 236.269 142.453 238.325H142.447ZM135.996 238.045C136.498 236.492 136.908 234.903 137.226 233.285C137.318 232.857 137.273 232.515 137.086 232.266C136.899 232.013 136.644 231.829 136.317 231.708C135.99 231.586 135.634 231.509 135.242 231.47C134.85 231.434 134.517 231.413 134.238 231.413C133.92 231.413 133.576 231.431 133.205 231.47C132.833 231.509 132.474 231.586 132.129 231.708C131.785 231.829 131.473 231.996 131.194 232.209C130.915 232.423 130.71 232.708 130.579 233.062C130.021 234.514 129.498 236.014 129.014 237.558C128.53 239.103 128.12 240.668 127.784 242.251C127.692 242.625 127.686 242.955 127.769 243.243C127.853 243.531 127.998 243.775 128.203 243.971C128.408 244.167 128.669 244.309 128.984 244.404C129.302 244.496 129.644 244.526 130.018 244.487C130.371 244.487 130.775 244.473 131.232 244.446C131.687 244.419 132.126 244.348 132.545 244.238C132.964 244.125 133.332 243.95 133.647 243.706C133.965 243.466 134.167 243.13 134.262 242.702C134.912 241.158 135.491 239.608 135.993 238.051L135.996 238.045Z" fill="#FF3333"/>
<path d="M155.824 243.813H154.455L152.557 233.873L148.2 248.34H142.028L148.283 227.535H154.538C154.874 227.535 155.209 227.585 155.542 227.689C155.874 227.793 156.183 227.942 156.463 228.135C156.742 228.331 156.979 228.559 157.175 228.818C157.371 229.079 157.505 229.376 157.579 229.712L158.5 234.487L162.495 229.462C162.979 228.865 163.564 228.396 164.253 228.051C164.942 227.707 165.649 227.535 166.376 227.535H171.99L165.762 248.34H159.507L163.807 234.125L155.821 243.816L155.824 243.813Z" fill="#FF3333"/>
<path d="M186.599 239.596H178.723C178.631 240.024 178.518 240.451 178.387 240.882C178.256 241.31 178.164 241.737 178.108 242.168C178.069 242.429 178.155 242.679 178.36 242.922C178.565 243.166 178.797 243.305 179.058 243.341C180.641 243.582 182.233 243.68 183.834 243.635C185.435 243.588 187.009 243.415 188.553 243.118L187.074 248.283C183.201 248.877 179.311 248.963 175.402 248.536C174.526 248.443 173.816 248.155 173.267 247.671C172.717 247.187 172.304 246.602 172.025 245.913C171.746 245.224 171.583 244.479 171.535 243.68C171.488 242.881 171.529 242.126 171.66 241.416C171.921 240.003 172.26 238.61 172.679 237.241C173.097 235.871 173.596 234.538 174.173 233.234C173.911 233.326 173.638 233.4 173.35 233.457C173.062 233.513 172.762 233.588 172.456 233.68C172.15 233.772 171.832 233.908 171.506 234.084C171.179 234.262 170.849 234.526 170.514 234.879C170.457 234.936 170.413 234.963 170.374 234.963C170.282 235.019 170.178 235.022 170.068 234.977C169.955 234.93 169.928 234.853 169.985 234.74C170.543 233.659 171.182 232.673 171.898 231.779C172.613 230.885 173.418 230.119 174.312 229.474C175.206 228.833 176.198 228.334 177.285 227.98C178.375 227.627 179.581 227.449 180.903 227.449H192.91L191.402 232.447H182.521C182.15 232.447 181.841 232.563 181.601 232.798C181.36 233.032 181.149 233.314 180.971 233.65C180.793 233.986 180.635 234.333 180.496 234.698C180.356 235.061 180.193 235.373 180.006 235.634C180.172 235.616 180.374 235.601 180.606 235.592C180.837 235.583 181.214 235.577 181.737 235.577C182.26 235.577 183.026 235.583 183.985 235.592C184.945 235.601 186.225 235.607 187.826 235.607L186.596 239.602L186.599 239.596Z" fill="#FF3333"/>
<path d="M201.93 242.417H198.075L196.287 248.337H190.255L196.54 227.532H207.068C207.775 227.532 208.482 227.624 209.192 227.811C209.899 227.998 210.531 228.286 211.09 228.675C211.648 229.067 212.105 229.56 212.459 230.154C212.812 230.751 212.99 231.449 212.99 232.248C212.99 233.347 212.836 234.425 212.53 235.488C212.224 236.549 211.761 237.547 211.149 238.476C210.721 239.147 210.214 239.783 209.628 240.389C209.043 240.995 208.396 241.482 207.689 241.856L209.813 248.334H203.947L201.936 242.414L201.93 242.417ZM202.432 238.144C202.952 238.144 203.385 238.105 203.73 238.031C204.075 237.956 204.363 237.855 204.597 237.725C204.829 237.594 205.025 237.44 205.182 237.264C205.34 237.089 205.503 236.905 205.672 236.721C206.1 236.255 206.43 235.735 206.664 235.156C206.896 234.58 207.015 233.965 207.015 233.311C207.015 233.089 206.973 232.854 206.89 232.613C206.807 232.373 206.691 232.153 206.54 231.957C206.391 231.761 206.21 231.604 205.996 231.482C205.782 231.36 205.545 231.301 205.283 231.301H201.428L199.361 238.144H202.432Z" fill="#FF3333"/>
<path d="M219.703 242.863C219.899 243.068 220.136 243.198 220.415 243.255C221.978 243.478 223.537 243.585 225.093 243.576C226.646 243.567 228.188 243.412 229.714 243.115L228.235 248.28C224.363 248.874 220.481 248.96 216.59 248.533C215.714 248.441 215.004 248.152 214.455 247.668C213.905 247.184 213.492 246.599 213.213 245.91C212.934 245.221 212.768 244.476 212.711 243.677C212.655 242.878 212.693 242.123 212.824 241.413C212.973 240.632 213.16 239.738 213.382 238.732C213.605 237.728 213.89 236.706 214.235 235.672C214.579 234.639 214.983 233.629 215.45 232.643C215.916 231.657 216.468 230.778 217.11 230.003C217.751 229.231 218.482 228.613 219.302 228.146C220.121 227.68 221.051 227.449 222.093 227.449H234.437L232.928 232.447H223.685C223.406 232.447 223.145 232.527 222.904 232.685C222.664 232.842 222.477 233.044 222.346 233.285C221.565 234.645 220.932 236.073 220.448 237.57C219.964 239.07 219.637 240.6 219.471 242.165C219.432 242.426 219.513 242.658 219.709 242.863H219.703Z" fill="#FF3333"/>
<path d="M237.505 227.532H243.733L237.448 248.337H231.137L237.505 227.532Z" fill="#FF3333"/>
<path d="M250.127 243.923L247.615 248.337H241.051L251.161 231.47C251.737 230.52 252.301 229.78 252.851 229.248C253.4 228.717 253.908 228.322 254.374 228.06C254.841 227.799 255.239 227.642 255.574 227.585C255.91 227.529 256.142 227.502 256.272 227.502H262.304V248.334H256.525V243.92H250.13L250.127 243.923ZM256.635 240.154V232.307L252.251 240.154H256.635Z" fill="#FF3333"/>
<path d="M271.773 242.78C272.013 243.077 272.266 243.255 272.527 243.311C274.11 243.552 275.672 243.617 277.22 243.507C278.764 243.394 280.309 243.181 281.856 242.866L280.377 248.031C278.31 248.384 276.329 248.589 274.428 248.645C272.53 248.702 270.62 248.589 268.702 248.31C267.062 248.105 265.943 247.392 265.337 246.174C264.731 244.957 264.707 243.285 265.268 241.161C265.286 241.048 265.316 240.92 265.352 240.769C265.39 240.62 265.453 240.383 265.548 240.056C265.64 239.729 265.767 239.278 265.925 238.702C266.082 238.126 266.305 237.348 266.596 236.37C266.884 235.393 267.252 234.182 267.698 232.741C268.143 231.298 268.684 229.554 269.317 227.505H275.545L272.025 239.15C271.933 239.634 271.826 240.101 271.704 240.546C271.583 240.992 271.505 241.458 271.467 241.942C271.428 242.203 271.532 242.483 271.773 242.78Z" fill="#FF3333"/>
<path d="M65.3677 227H71.5958L65.3112 247.805H59L65.3677 227Z" fill="white"/>
</svg>
