<svg width="298" height="298" viewBox="0 0 298 298" fill="none" xmlns="http://www.w3.org/2000/svg">
<path d="M259.444 260.582C259.444 275.539 247.318 287.664 232.359 287.664H65.0852C50.1256 287.664 38 275.539 38 260.582V73.9417C38 69.5551 41.5551 66 45.9417 66H251.505C255.892 66 259.447 69.5551 259.447 73.9417V260.582H259.444Z" fill="black"/>
<path d="M170.215 16.241C203.084 16.241 229.847 42.3726 230.867 74.9947H71.8807C72.3753 59.004 79.0624 44.5719 89.6206 34.0167C100.602 23.0324 115.77 16.244 132.527 16.244H170.212M170.215 10.281H132.53C123.536 10.281 114.808 12.0422 106.589 15.5198C98.653 18.8783 91.5248 23.6821 85.4069 29.8C73.3707 41.8332 66.4511 57.818 65.9236 74.8069L65.7329 80.9517H237.014L236.824 74.8069C236.281 57.4514 229.114 41.2223 216.637 29.1057C204.133 16.9651 187.648 10.278 170.215 10.278V10.281Z" fill="black"/>
<path d="M99.5688 200.642C100.814 202.177 102.108 203.086 103.452 203.375C111.596 204.621 119.648 204.957 127.605 204.382C135.558 203.807 143.515 202.707 151.471 201.074L143.852 227.674C133.213 229.495 123.004 230.549 113.229 230.836C103.452 231.125 93.6267 230.549 83.7569 229.11C75.3205 228.055 69.5453 224.39 66.4312 218.111C63.3141 211.835 63.1949 203.229 66.0706 192.304C66.166 191.729 66.309 191.059 66.5027 190.293C66.6934 189.527 67.0272 188.305 67.5099 186.627C67.9897 184.953 68.6364 182.625 69.4499 179.654C70.2635 176.683 71.4137 172.681 72.9008 167.648C74.3848 162.614 76.2801 156.386 78.5806 148.957C80.8812 141.531 83.6586 132.543 86.9187 122H118.981L100.865 181.955C100.385 184.449 99.834 186.842 99.2112 189.142C98.5854 191.443 98.1801 193.839 97.9894 196.33C97.7957 197.674 98.3231 199.11 99.5718 200.642H99.5688Z" fill="white"/>
<path d="M163.788 201.077C164.729 202.064 165.871 202.689 167.215 202.961C174.742 204.036 182.249 204.552 189.735 204.507C197.217 204.463 204.635 203.724 211.983 202.29L204.858 227.161C186.215 230.028 167.528 230.433 148.795 228.371C144.582 227.921 141.155 226.535 138.511 224.202C135.865 221.872 133.874 219.05 132.528 215.733C131.184 212.419 130.376 208.831 130.108 204.978C129.84 201.125 130.018 197.495 130.644 194.089C131.359 190.325 132.256 186.022 133.332 181.183C134.408 176.343 135.773 171.435 137.433 166.462C139.089 161.488 141.038 156.628 143.279 151.875C145.517 147.124 148.187 142.89 151.278 139.171C154.371 135.452 157.887 132.472 161.83 130.231C165.772 127.993 170.254 126.869 175.276 126.869H234.7L227.441 150.933H182.94C181.596 150.933 180.339 151.314 179.176 152.074C178.011 152.837 177.114 153.8 176.488 154.965C172.725 161.509 169.676 168.387 167.346 175.601C165.015 182.816 163.448 190.188 162.64 197.716C162.459 198.973 162.843 200.091 163.782 201.077H163.788Z" fill="#FF3333"/>
<path d="M150.148 201.339C143.715 202.612 137.281 203.533 130.847 204.114C130.409 204.153 130.078 204.531 130.108 204.969C130.108 204.969 130.108 204.975 130.108 204.978C130.376 208.831 131.184 212.419 132.528 215.733C133.872 219.05 135.865 221.875 138.511 224.202C139.841 225.376 141.372 226.309 143.101 227.003C143.551 227.185 144.06 226.932 144.194 226.464L151.096 202.368C151.266 201.778 150.75 201.22 150.145 201.339H150.148Z" fill="black"/>
<path d="M100.754 24.734C101.281 24.734 101.797 24.591 102.253 24.3257C111.163 19.1852 121.5 16.241 132.529 16.241H170.215C181.244 16.241 191.587 19.1852 200.5 24.3257C200.956 24.588 201.472 24.734 201.999 24.734H202.008C205.051 24.734 206.15 20.6991 203.516 19.1733C193.491 13.3742 182.072 10.281 170.215 10.281H132.529C123.536 10.281 114.807 12.0422 106.589 15.5198C104.059 16.5897 101.609 17.8085 99.2488 19.1703C96.6115 20.6931 97.7052 24.734 100.754 24.734Z" fill="#FF3333"/>
</svg>
