<svg width="298" height="298" viewBox="0 0 298 298" fill="none" xmlns="http://www.w3.org/2000/svg">
<path d="M259.722 260.637C259.722 275.593 247.596 287.719 232.637 287.719H65.3633C50.4037 287.719 38.2781 275.593 38.2781 260.637V73.9964C38.2781 69.6098 41.8332 66.0547 46.2198 66.0547H251.783C256.17 66.0547 259.725 69.6098 259.725 73.9964V260.637H259.722Z" fill="black"/>
<path d="M170.215 16.241C203.084 16.241 229.847 42.3726 230.867 74.9947H71.8807C72.3753 59.004 79.0624 44.5719 89.6206 34.0167C100.602 23.0324 115.77 16.244 132.527 16.244H170.212M170.215 10.281H132.53C123.536 10.281 114.808 12.0422 106.589 15.5198C98.653 18.8783 91.5248 23.6821 85.4069 29.8C73.3707 41.8332 66.4511 57.818 65.9236 74.8069L65.7329 80.9517H237.014L236.824 74.8069C236.281 57.4514 229.114 41.2223 216.637 29.1057C204.133 16.9651 187.648 10.278 170.215 10.278V10.281Z" fill="black"/>
<path d="M101.856 183.949C103.102 185.484 104.395 186.393 105.739 186.682C113.884 187.928 121.936 188.264 129.892 187.689C137.846 187.114 145.802 186.015 153.759 184.382L146.139 210.981C135.501 212.802 125.291 213.857 115.517 214.143C105.739 214.432 95.9143 213.857 86.0445 212.417C77.6081 211.362 71.8329 207.697 68.7188 201.418C65.6017 195.142 65.4825 186.536 68.3582 175.611C68.4536 175.036 68.5966 174.366 68.7903 173.6C68.981 172.834 69.3148 171.612 69.7975 169.935C70.2773 168.26 70.924 165.932 71.7375 162.961C72.5511 159.99 73.7013 155.988 75.1884 150.955C76.6724 145.922 78.5677 139.693 80.8682 132.264C83.1688 124.838 85.9462 115.85 89.2063 105.307H121.268L103.153 165.262C102.673 167.756 102.122 170.149 101.499 172.45C100.873 174.75 100.468 177.146 100.277 179.637C100.083 180.981 100.611 182.418 101.859 183.949H101.856Z" fill="white"/>
<path d="M166.075 184.385C167.017 185.371 168.158 185.997 169.502 186.268C177.03 187.344 184.536 187.859 192.022 187.815C199.505 187.77 206.922 187.031 214.271 185.597L207.146 210.468C188.503 213.335 169.815 213.741 151.083 211.678C146.869 211.228 143.442 209.843 140.799 207.509C138.153 205.179 136.162 202.357 134.815 199.04C133.471 195.726 132.664 192.139 132.395 188.285C132.127 184.432 132.306 180.803 132.932 177.396C133.647 173.633 134.544 169.33 135.62 164.49C136.695 159.651 138.06 154.742 139.72 149.769C141.377 144.795 143.326 139.935 145.567 135.182C147.805 130.432 150.475 126.197 153.565 122.478C156.659 118.759 160.175 115.779 164.117 113.538C168.06 111.3 172.542 110.177 177.563 110.177H236.987L229.728 134.24H185.228C183.884 134.24 182.626 134.622 181.464 135.381C180.299 136.144 179.402 137.107 178.776 138.272C175.012 144.816 171.964 151.694 169.633 158.909C167.303 166.123 165.736 173.496 164.928 181.023C164.746 182.281 165.131 183.398 166.069 184.385H166.075Z" fill="#FF3333"/>
<path d="M152.436 184.647C146.002 185.919 139.568 186.84 133.134 187.421C132.696 187.46 132.366 187.838 132.395 188.276C132.395 188.276 132.395 188.282 132.395 188.285C132.664 192.138 133.471 195.726 134.815 199.04C136.159 202.357 138.153 205.182 140.799 207.509C142.128 208.683 143.66 209.616 145.388 210.31C145.838 210.492 146.348 210.239 146.482 209.771L153.384 185.675C153.553 185.085 153.038 184.528 152.433 184.647H152.436Z" fill="black"/>
<path d="M58.1339 248.008C58.3097 248.225 58.4945 248.356 58.6852 248.395C59.8414 248.571 60.9857 248.618 62.1152 248.538C63.2446 248.458 64.374 248.3 65.5064 248.067L64.4247 251.846C62.9138 252.105 61.4625 252.254 60.0739 252.296C58.6852 252.337 57.2905 252.254 55.887 252.051C54.689 251.902 53.8695 251.381 53.4255 250.49C52.9815 249.599 52.9666 248.377 53.3748 246.824C53.3867 246.744 53.4076 246.649 53.4374 246.538C53.4642 246.428 53.5119 246.255 53.5804 246.017C53.649 245.778 53.7414 245.448 53.8576 245.028C53.9738 244.604 54.1377 244.038 54.3463 243.323C54.5579 242.608 54.8261 241.723 55.1539 240.668C55.4817 239.613 55.875 238.337 56.3369 236.839H60.8904L58.3186 245.355C58.2501 245.71 58.1726 246.05 58.0832 246.377C57.9938 246.705 57.9372 247.045 57.9104 247.4C57.8836 247.59 57.9581 247.796 58.1339 248.014V248.008Z" fill="white"/>
<path d="M78.371 245.677H72.6106C72.5421 245.99 72.4616 246.303 72.3663 246.616C72.2709 246.929 72.2024 247.242 72.1607 247.555C72.1338 247.745 72.1934 247.93 72.3454 248.106C72.4944 248.282 72.6643 248.386 72.855 248.413C74.0112 248.589 75.1764 248.66 76.3476 248.627C77.5187 248.595 78.669 248.466 79.7984 248.249L78.7167 252.028C75.8857 252.463 73.0398 252.525 70.179 252.212C69.5383 252.144 69.0168 251.932 68.6174 251.581C68.2151 251.226 67.9142 250.797 67.7085 250.293C67.5029 249.79 67.3837 249.244 67.3509 248.66C67.3182 248.076 67.348 247.525 67.4433 247.006C67.634 245.972 67.8814 244.953 68.1883 243.952C68.4953 242.95 68.8588 241.973 69.282 241.022C69.0913 241.091 68.8916 241.145 68.68 241.186C68.4684 241.228 68.2509 241.282 68.0274 241.35C67.8039 241.419 67.5715 241.517 67.3331 241.645C67.0947 241.776 66.8533 241.97 66.6089 242.226C66.5672 242.268 66.5344 242.289 66.5076 242.289C66.4391 242.331 66.3646 242.334 66.2841 242.298C66.2036 242.265 66.1828 242.205 66.2215 242.125C66.6298 241.335 67.0976 240.614 67.6191 239.962C68.1436 239.309 68.7307 238.746 69.3863 238.278C70.0419 237.81 70.766 237.443 71.5617 237.184C72.3573 236.925 73.2394 236.797 74.2049 236.797H82.987L81.8844 240.453H75.391C75.1198 240.453 74.8933 240.54 74.7175 240.709C74.5417 240.879 74.3867 241.088 74.2586 241.332C74.1275 241.577 74.0142 241.833 73.9099 242.098C73.8086 242.363 73.6894 242.593 73.5523 242.784C73.6745 242.772 73.8205 242.76 73.9904 242.754C74.1602 242.748 74.4374 242.745 74.8188 242.745C75.2003 242.745 75.7605 242.748 76.4638 242.754C77.1641 242.76 78.0998 242.763 79.2709 242.763L78.371 245.683V245.677Z" fill="white"/>
<path d="M95.5715 248.845L93.7329 252.072H88.9351L96.3284 239.738C96.7516 239.044 97.1628 238.501 97.5651 238.114C97.9674 237.727 98.337 237.437 98.6767 237.247C99.0164 237.056 99.3084 236.94 99.5558 236.898C99.8001 236.856 99.97 236.836 100.065 236.836H104.476V252.069H100.247V248.842H95.5715V248.845ZM100.328 246.085V240.346L97.1211 246.085H100.328Z" fill="white"/>
<path d="M121.861 248.067C122.004 248.216 122.177 248.311 122.383 248.353C123.527 248.517 124.665 248.595 125.804 248.589C126.939 248.583 128.066 248.469 129.183 248.252L128.101 252.031C125.27 252.466 122.43 252.528 119.585 252.215C118.944 252.147 118.422 251.935 118.023 251.584C117.621 251.229 117.32 250.8 117.114 250.296C116.908 249.793 116.786 249.247 116.748 248.663C116.706 248.079 116.733 247.528 116.828 247.009C116.938 246.437 117.072 245.784 117.236 245.048C117.4 244.312 117.606 243.567 117.859 242.813C118.109 242.056 118.407 241.32 118.747 240.599C119.087 239.878 119.492 239.234 119.963 238.668C120.434 238.102 120.967 237.652 121.566 237.309C122.165 236.97 122.845 236.8 123.608 236.8H132.634L131.531 240.456H124.773C124.567 240.456 124.376 240.516 124.201 240.629C124.025 240.745 123.888 240.891 123.792 241.067C123.22 242.059 122.758 243.105 122.404 244.202C122.049 245.299 121.811 246.419 121.688 247.561C121.662 247.751 121.718 247.921 121.861 248.07V248.067Z" fill="#FF3333"/>
<path d="M146.172 244.75C145.764 246.255 145.239 247.742 144.598 249.211C144.259 249.959 143.755 250.573 143.088 251.05C142.42 251.527 141.693 251.834 140.903 251.968C140.263 252.078 139.628 252.159 138.993 252.212C138.358 252.266 137.724 252.293 137.083 252.293C136.621 252.293 136.135 252.284 135.632 252.263C135.128 252.242 134.63 252.188 134.142 252.099C133.65 252.01 133.191 251.882 132.762 251.712C132.333 251.542 131.963 251.309 131.65 251.017C131.337 250.725 131.102 250.365 130.947 249.936C130.789 249.506 130.738 248.985 130.795 248.374C130.864 247.665 130.983 246.935 131.153 246.178C131.323 245.421 131.519 244.67 131.746 243.922C131.969 243.174 132.211 242.441 132.47 241.726C132.729 241.01 132.988 240.34 133.245 239.714C133.382 239.374 133.608 239.026 133.93 238.671C134.249 238.317 134.693 237.995 135.256 237.703C135.822 237.411 136.532 237.172 137.39 236.987C138.248 236.803 139.282 236.713 140.495 236.713C141.094 236.713 141.744 236.728 142.447 236.755C143.147 236.782 143.815 236.883 144.446 237.062C145.078 237.241 145.641 237.521 146.13 237.908C146.619 238.296 146.953 238.859 147.131 239.592V240.143C146.899 241.708 146.58 243.245 146.172 244.747V244.75ZM141.455 244.545C141.821 243.409 142.122 242.247 142.355 241.064C142.423 240.751 142.387 240.504 142.253 240.319C142.116 240.134 141.928 240 141.693 239.911C141.455 239.821 141.192 239.765 140.906 239.738C140.62 239.711 140.376 239.696 140.17 239.696C139.938 239.696 139.687 239.711 139.413 239.738C139.142 239.765 138.88 239.824 138.627 239.911C138.373 240 138.147 240.122 137.941 240.277C137.736 240.435 137.587 240.641 137.491 240.9C137.083 241.961 136.701 243.058 136.347 244.187C135.992 245.317 135.694 246.461 135.447 247.617C135.378 247.891 135.375 248.133 135.438 248.341C135.501 248.553 135.605 248.729 135.754 248.872C135.903 249.015 136.094 249.119 136.326 249.188C136.558 249.256 136.809 249.277 137.083 249.25C137.342 249.25 137.637 249.241 137.971 249.22C138.305 249.2 138.624 249.149 138.931 249.068C139.237 248.988 139.506 248.857 139.738 248.681C139.971 248.505 140.12 248.258 140.188 247.945C140.665 246.816 141.088 245.683 141.455 244.545Z" fill="#FF3333"/>
<path d="M155.955 248.761H154.954L153.566 241.49L150.38 252.069H145.868L150.442 236.856H155.017C155.261 236.856 155.505 236.895 155.753 236.97C156 237.044 156.224 237.154 156.426 237.297C156.629 237.44 156.805 237.607 156.948 237.798C157.091 237.989 157.189 238.206 157.243 238.451L157.916 241.943L160.837 238.269C161.191 237.834 161.62 237.488 162.124 237.238C162.628 236.987 163.146 236.859 163.677 236.859H167.78L163.227 252.072H158.652L161.796 241.678L155.955 248.764V248.761Z" fill="#FF3333"/>
<path d="M178.46 245.677H172.7C172.631 245.99 172.551 246.303 172.456 246.616C172.36 246.929 172.292 247.242 172.253 247.555C172.226 247.745 172.286 247.93 172.438 248.106C172.587 248.282 172.757 248.386 172.947 248.413C174.103 248.589 175.269 248.66 176.44 248.627C177.611 248.595 178.761 248.466 179.891 248.249L178.809 252.028C175.978 252.463 173.132 252.525 170.274 252.212C169.633 252.144 169.112 251.932 168.713 251.581C168.31 251.226 168.009 250.797 167.804 250.293C167.598 249.79 167.479 249.244 167.446 248.66C167.41 248.076 167.443 247.525 167.539 247.006C167.729 245.972 167.977 244.953 168.284 243.952C168.59 242.95 168.954 241.973 169.377 241.022C169.186 241.091 168.987 241.145 168.775 241.186C168.564 241.228 168.346 241.282 168.123 241.35C167.899 241.419 167.667 241.517 167.428 241.645C167.19 241.776 166.948 241.97 166.704 242.226C166.662 242.268 166.63 242.289 166.603 242.289C166.534 242.331 166.46 242.334 166.379 242.298C166.299 242.265 166.278 242.205 166.317 242.125C166.725 241.335 167.19 240.614 167.714 239.962C168.239 239.309 168.826 238.746 169.481 238.278C170.137 237.81 170.861 237.443 171.657 237.184C172.453 236.925 173.335 236.797 174.303 236.797H183.085L181.983 240.453H175.489C175.218 240.453 174.992 240.54 174.816 240.709C174.64 240.879 174.485 241.088 174.357 241.332C174.229 241.577 174.112 241.833 174.008 242.098C173.907 242.363 173.788 242.593 173.651 242.784C173.773 242.772 173.919 242.76 174.089 242.754C174.258 242.748 174.536 242.745 174.917 242.745C175.298 242.745 175.859 242.748 176.562 242.754C177.262 242.76 178.198 242.763 179.369 242.763L178.469 245.683L178.46 245.677Z" fill="#FF3333"/>
<path d="M189.671 247.742H186.852L185.544 252.072H181.133L185.728 236.859H193.426C193.944 236.859 194.46 236.928 194.978 237.065C195.497 237.202 195.959 237.411 196.367 237.697C196.775 237.983 197.109 238.343 197.368 238.778C197.628 239.214 197.756 239.726 197.756 240.31C197.756 241.115 197.642 241.905 197.419 242.679C197.195 243.454 196.859 244.184 196.409 244.864C196.096 245.352 195.726 245.82 195.297 246.261C194.868 246.702 194.394 247.06 193.879 247.334L195.431 252.072H191.143L189.674 247.742H189.671ZM190.038 244.616C190.419 244.616 190.735 244.589 190.988 244.536C191.238 244.482 191.45 244.408 191.62 244.312C191.79 244.217 191.933 244.104 192.049 243.976C192.165 243.847 192.284 243.713 192.407 243.576C192.72 243.237 192.961 242.855 193.131 242.432C193.301 242.009 193.387 241.562 193.387 241.085C193.387 240.921 193.357 240.751 193.295 240.575C193.232 240.4 193.149 240.239 193.038 240.096C192.928 239.953 192.797 239.836 192.639 239.747C192.481 239.658 192.308 239.613 192.118 239.613H189.298L187.788 244.616H190.035H190.038Z" fill="#FF3333"/>
<path d="M202.667 248.067C202.81 248.216 202.983 248.311 203.188 248.353C204.333 248.517 205.471 248.595 206.609 248.589C207.745 248.583 208.871 248.469 209.989 248.252L208.907 252.031C206.076 252.466 203.236 252.528 200.39 252.215C199.749 252.147 199.228 251.935 198.829 251.584C198.426 251.229 198.125 250.8 197.92 250.296C197.714 249.793 197.592 249.247 197.553 248.663C197.512 248.079 197.538 247.528 197.634 247.009C197.741 246.437 197.878 245.784 198.042 245.048C198.206 244.312 198.411 243.567 198.665 242.813C198.915 242.056 199.213 241.32 199.553 240.599C199.893 239.878 200.298 239.234 200.769 238.668C201.239 238.102 201.773 237.652 202.372 237.309C202.971 236.97 203.65 236.8 204.413 236.8H213.44L212.337 240.456H205.578C205.373 240.456 205.182 240.516 205.006 240.629C204.83 240.745 204.693 240.891 204.598 241.067C204.026 242.059 203.564 243.105 203.209 244.202C202.855 245.299 202.616 246.419 202.494 247.561C202.467 247.751 202.524 247.921 202.667 248.07V248.067Z" fill="#FF3333"/>
<path d="M215.687 236.856H220.24L215.645 252.069H211.029L215.684 236.856H215.687Z" fill="#FF3333"/>
<path d="M86.6524 236.856H91.2058L86.6107 252.069H81.9946L86.6494 236.856H86.6524Z" fill="white"/>
<path d="M224.918 248.845L223.08 252.072H218.282L225.675 239.738C226.099 239.044 226.51 238.501 226.912 238.114C227.314 237.727 227.684 237.437 228.027 237.247C228.366 237.056 228.658 236.94 228.906 236.898C229.153 236.856 229.32 236.836 229.415 236.836H233.826V252.069H229.597V248.842H224.921L224.918 248.845ZM229.675 246.085V240.346L226.468 246.085H229.675Z" fill="#FF3333"/>
<path d="M240.745 248.008C240.921 248.225 241.106 248.356 241.297 248.395C242.453 248.571 243.597 248.618 244.726 248.538C245.856 248.458 246.985 248.3 248.118 248.067L247.036 251.846C245.525 252.105 244.074 252.254 242.685 252.296C241.297 252.337 239.902 252.254 238.498 252.051C237.3 251.902 236.481 251.381 236.037 250.49C235.593 249.599 235.578 248.377 235.986 246.824C235.998 246.744 236.019 246.649 236.049 246.538C236.076 246.428 236.123 246.255 236.192 246.017C236.26 245.778 236.353 245.448 236.466 245.028C236.582 244.604 236.746 244.038 236.955 243.323C237.166 242.608 237.434 241.723 237.762 240.668C238.09 239.613 238.483 238.337 238.945 236.839H243.499L240.927 245.355C240.858 245.71 240.781 246.05 240.692 246.377C240.602 246.705 240.546 247.045 240.519 247.4C240.492 247.59 240.566 247.796 240.742 248.014L240.745 248.008Z" fill="#FF3333"/>
<path d="M100.754 24.734C101.281 24.734 101.797 24.591 102.253 24.3257C111.163 19.1852 121.5 16.241 132.529 16.241H170.215C181.244 16.241 191.587 19.1852 200.5 24.3257C200.956 24.588 201.472 24.734 201.999 24.734H202.008C205.051 24.734 206.15 20.6991 203.516 19.1733C193.491 13.3742 182.072 10.281 170.215 10.281H132.529C123.536 10.281 114.807 12.0422 106.589 15.5198C104.059 16.5897 101.609 17.8085 99.2488 19.1703C96.6115 20.6931 97.7052 24.734 100.754 24.734Z" fill="#FF3333"/>
</svg>
