<svg width="298" height="298" viewBox="0 0 298 298" fill="none" xmlns="http://www.w3.org/2000/svg">
<path d="M259.444 260.637C259.444 275.593 247.318 287.719 232.359 287.719H65.0852C50.1256 287.719 38 275.593 38 260.637V73.9964C38 69.6098 41.5551 66.0547 45.9417 66.0547H251.505C255.892 66.0547 259.447 69.6098 259.447 73.9964V260.637H259.444Z" fill="white"/>
<path d="M99.5688 183.949C100.814 185.484 102.108 186.393 103.452 186.682C111.596 187.928 119.648 188.264 127.605 187.689C135.558 187.114 143.515 186.015 151.471 184.382L143.852 210.981C133.213 212.802 123.004 213.857 113.229 214.143C103.452 214.432 93.6267 213.857 83.7569 212.417C75.3205 211.362 69.5453 207.697 66.4312 201.418C63.3141 195.142 63.1949 186.536 66.0706 175.611C66.166 175.036 66.309 174.366 66.5027 173.6C66.6934 172.834 67.0272 171.612 67.5099 169.935C67.9897 168.26 68.6364 165.932 69.4499 162.961C70.2635 159.99 71.4137 155.988 72.9008 150.955C74.3848 145.922 76.2801 139.693 78.5806 132.264C80.8812 124.838 83.6586 115.85 86.9187 105.307H118.981L100.865 165.262C100.385 167.756 99.834 170.149 99.2112 172.45C98.5854 174.75 98.1801 177.146 97.9894 179.637C97.7957 180.981 98.3231 182.418 99.5718 183.949H99.5688Z" fill="black"/>
<path d="M163.788 184.385C164.729 185.371 165.871 185.997 167.215 186.268C174.742 187.344 182.249 187.859 189.735 187.815C197.217 187.77 204.635 187.031 211.983 185.597L204.858 210.468C186.215 213.335 167.528 213.741 148.795 211.678C144.582 211.228 141.155 209.843 138.511 207.509C135.865 205.179 133.874 202.357 132.528 199.04C131.184 195.726 130.376 192.139 130.108 188.285C129.84 184.432 130.018 180.803 130.644 177.396C131.359 173.633 132.256 169.33 133.332 164.49C134.408 159.651 135.773 154.742 137.433 149.769C139.089 144.795 141.038 139.935 143.279 135.182C145.517 130.432 148.187 126.197 151.278 122.478C154.371 118.759 157.887 115.779 161.83 113.538C165.772 111.3 170.254 110.177 175.276 110.177H234.7L227.441 134.24H182.94C181.596 134.24 180.339 134.622 179.176 135.381C178.011 136.144 177.114 137.107 176.488 138.272C172.725 144.816 169.676 151.694 167.346 158.909C165.015 166.123 163.448 173.496 162.64 181.023C162.459 182.281 162.843 183.398 163.782 184.385H163.788Z" fill="#FF3333"/>
<path d="M150.148 184.647C143.715 185.919 137.281 186.84 130.847 187.421C130.409 187.46 130.078 187.838 130.108 188.276C130.108 188.276 130.108 188.282 130.108 188.285C130.376 192.138 131.184 195.726 132.528 199.04C133.872 202.357 135.865 205.182 138.511 207.509C139.841 208.683 141.372 209.616 143.101 210.31C143.551 210.492 144.06 210.239 144.194 209.771L151.096 185.675C151.266 185.085 150.75 184.528 150.145 184.647H150.148Z" fill="white"/>
<path d="M56.0538 248.008C56.2296 248.225 56.4144 248.356 56.6051 248.395C57.7613 248.571 58.9057 248.618 60.0351 248.538C61.1645 248.458 62.2939 248.3 63.4263 248.067L62.3446 251.846C60.8337 252.105 59.3825 252.254 57.9938 252.296C56.6051 252.337 55.2105 252.254 53.8069 252.051C52.6089 251.902 51.7894 251.381 51.3454 250.49C50.9014 249.599 50.8865 248.377 51.2947 246.824C51.3067 246.744 51.3275 246.649 51.3573 246.538C51.3842 246.428 51.4318 246.255 51.5004 246.017C51.5689 245.778 51.6613 245.448 51.7775 245.028C51.8937 244.604 52.0576 244.038 52.2662 243.323C52.4778 242.608 52.746 241.723 53.0738 240.668C53.4016 239.613 53.795 238.337 54.2569 236.839H58.8103L56.2386 245.355C56.17 245.71 56.0925 246.05 56.0031 246.377C55.9137 246.705 55.8571 247.045 55.8303 247.4C55.8035 247.59 55.878 247.796 56.0538 248.014V248.008Z" fill="black"/>
<path d="M76.2909 245.677H70.5306C70.462 245.99 70.3816 246.303 70.2862 246.616C70.1908 246.929 70.1223 247.242 70.0806 247.555C70.0538 247.745 70.1134 247.93 70.2653 248.106C70.4143 248.282 70.5842 248.386 70.7749 248.413C71.9312 248.589 73.0963 248.66 74.2675 248.627C75.4386 248.595 76.5889 248.466 77.7183 248.249L76.6366 252.028C73.8056 252.463 70.9597 252.525 68.0989 252.212C67.4582 252.144 66.9367 251.932 66.5374 251.581C66.1351 251.226 65.8341 250.797 65.6285 250.293C65.4228 249.79 65.3036 249.244 65.2709 248.66C65.2381 248.076 65.2679 247.525 65.3632 247.006C65.554 245.972 65.8013 244.953 66.1082 243.952C66.4152 242.95 66.7787 241.973 67.2019 241.022C67.0112 241.091 66.8115 241.145 66.5999 241.186C66.3884 241.228 66.1708 241.282 65.9473 241.35C65.7238 241.419 65.4914 241.517 65.253 241.645C65.0146 241.776 64.7732 241.97 64.5288 242.226C64.4871 242.268 64.4543 242.289 64.4275 242.289C64.359 242.331 64.2845 242.334 64.204 242.298C64.1236 242.265 64.1027 242.205 64.1414 242.125C64.5497 241.335 65.0176 240.614 65.5391 239.962C66.0635 239.309 66.6506 238.746 67.3062 238.278C67.9618 237.81 68.6859 237.443 69.4816 237.184C70.2773 236.925 71.1593 236.797 72.1249 236.797H80.9069L79.8043 240.453H73.3109C73.0397 240.453 72.8132 240.54 72.6374 240.709C72.4616 240.879 72.3066 241.088 72.1785 241.332C72.0474 241.577 71.9341 241.833 71.8298 242.098C71.7285 242.363 71.6093 242.593 71.4722 242.784C71.5944 242.772 71.7404 242.76 71.9103 242.754C72.0802 242.748 72.3573 242.745 72.7387 242.745C73.1202 242.745 73.6804 242.748 74.3837 242.754C75.084 242.76 76.0197 242.763 77.1909 242.763L76.2909 245.683V245.677Z" fill="black"/>
<path d="M93.4914 248.845L91.6528 252.072H86.855L94.2484 239.738C94.6715 239.044 95.0828 238.501 95.4851 238.114C95.8874 237.727 96.2569 237.437 96.5966 237.247C96.9363 237.056 97.2284 236.94 97.4757 236.898C97.7201 236.856 97.8899 236.836 97.9853 236.836H102.396V252.069H98.1671V248.842H93.4914V248.845ZM98.2475 246.085V240.346L95.041 246.085H98.2475Z" fill="black"/>
<path d="M119.781 248.067C119.924 248.216 120.097 248.311 120.303 248.353C121.447 248.517 122.585 248.595 123.724 248.589C124.859 248.583 125.986 248.469 127.103 248.252L126.021 252.031C123.19 252.466 120.35 252.528 117.504 252.215C116.864 252.147 116.342 251.935 115.943 251.584C115.541 251.229 115.24 250.8 115.034 250.296C114.828 249.793 114.706 249.247 114.667 248.663C114.626 248.079 114.653 247.528 114.748 247.009C114.858 246.437 114.992 245.784 115.156 245.048C115.32 244.312 115.526 243.567 115.779 242.813C116.029 242.056 116.327 241.32 116.667 240.599C117.007 239.878 117.412 239.234 117.883 238.668C118.354 238.102 118.887 237.652 119.486 237.309C120.085 236.97 120.765 236.8 121.527 236.8H130.554L129.451 240.456H122.693C122.487 240.456 122.296 240.516 122.12 240.629C121.945 240.745 121.808 240.891 121.712 241.067C121.14 242.059 120.678 243.105 120.324 244.202C119.969 245.299 119.731 246.419 119.608 247.561C119.582 247.751 119.638 247.921 119.781 248.07V248.067Z" fill="#FF3333"/>
<path d="M144.092 244.75C143.684 246.255 143.159 247.742 142.518 249.211C142.179 249.959 141.675 250.573 141.008 251.05C140.34 251.527 139.613 251.834 138.823 251.968C138.182 252.078 137.548 252.159 136.913 252.212C136.278 252.266 135.644 252.293 135.003 252.293C134.541 252.293 134.055 252.284 133.552 252.263C133.048 252.242 132.55 252.188 132.062 252.099C131.57 252.01 131.111 251.882 130.682 251.712C130.253 251.542 129.883 251.309 129.57 251.017C129.257 250.725 129.022 250.365 128.867 249.936C128.709 249.506 128.658 248.985 128.715 248.374C128.784 247.665 128.903 246.935 129.073 246.178C129.242 245.421 129.439 244.67 129.666 243.922C129.889 243.174 130.131 242.441 130.39 241.726C130.649 241.01 130.908 240.34 131.165 239.714C131.302 239.374 131.528 239.026 131.85 238.671C132.169 238.317 132.613 237.995 133.176 237.703C133.742 237.411 134.452 237.172 135.31 236.987C136.168 236.803 137.202 236.713 138.415 236.713C139.014 236.713 139.664 236.728 140.367 236.755C141.067 236.782 141.735 236.883 142.366 237.062C142.998 237.241 143.561 237.521 144.05 237.908C144.539 238.296 144.873 238.859 145.051 239.592V240.143C144.819 241.708 144.5 243.245 144.092 244.747V244.75ZM139.374 244.545C139.741 243.409 140.042 242.247 140.274 241.064C140.343 240.751 140.307 240.504 140.173 240.319C140.036 240.134 139.848 240 139.613 239.911C139.375 239.821 139.112 239.765 138.826 239.738C138.54 239.711 138.296 239.696 138.09 239.696C137.858 239.696 137.607 239.711 137.333 239.738C137.062 239.765 136.8 239.824 136.546 239.911C136.293 240 136.067 240.122 135.861 240.277C135.655 240.435 135.506 240.641 135.411 240.9C135.003 241.961 134.621 243.058 134.267 244.187C133.912 245.317 133.614 246.461 133.367 247.617C133.298 247.891 133.295 248.133 133.358 248.341C133.42 248.553 133.525 248.729 133.674 248.872C133.823 249.015 134.013 249.119 134.246 249.188C134.478 249.256 134.729 249.277 135.003 249.25C135.262 249.25 135.557 249.241 135.891 249.22C136.225 249.2 136.543 249.149 136.85 249.068C137.157 248.988 137.426 248.857 137.658 248.681C137.89 248.505 138.039 248.258 138.108 247.945C138.585 246.816 139.008 245.683 139.374 244.545Z" fill="#FF3333"/>
<path d="M153.875 248.761H152.874L151.485 241.49L148.3 252.069H143.788L148.362 236.856H152.937C153.181 236.856 153.425 236.895 153.673 236.97C153.92 237.044 154.144 237.154 154.346 237.297C154.549 237.44 154.725 237.607 154.868 237.798C155.011 237.989 155.109 238.206 155.163 238.451L155.836 241.943L158.757 238.269C159.111 237.834 159.54 237.488 160.044 237.238C160.548 236.987 161.066 236.859 161.597 236.859H165.7L161.147 252.072H156.572L159.716 241.678L153.875 248.764V248.761Z" fill="#FF3333"/>
<path d="M176.38 245.677H170.62C170.551 245.99 170.471 246.303 170.375 246.616C170.28 246.929 170.212 247.242 170.173 247.555C170.146 247.745 170.206 247.93 170.358 248.106C170.507 248.282 170.676 248.386 170.867 248.413C172.023 248.589 173.189 248.66 174.36 248.627C175.531 248.595 176.681 248.466 177.811 248.249L176.729 252.028C173.898 252.463 171.052 252.525 168.194 252.212C167.553 252.144 167.032 251.932 166.633 251.581C166.23 251.226 165.929 250.797 165.724 250.293C165.518 249.79 165.399 249.244 165.366 248.66C165.33 248.076 165.363 247.525 165.458 247.006C165.649 245.972 165.897 244.953 166.203 243.952C166.51 242.95 166.874 241.973 167.297 241.022C167.106 241.091 166.907 241.145 166.695 241.186C166.484 241.228 166.266 241.282 166.043 241.35C165.819 241.419 165.587 241.517 165.348 241.645C165.11 241.776 164.868 241.97 164.624 242.226C164.582 242.268 164.55 242.289 164.523 242.289C164.454 242.331 164.38 242.334 164.299 242.298C164.219 242.265 164.198 242.205 164.237 242.125C164.645 241.335 165.11 240.614 165.634 239.962C166.159 239.309 166.746 238.746 167.401 238.278C168.057 237.81 168.781 237.443 169.577 237.184C170.372 236.925 171.255 236.797 172.223 236.797H181.005L179.903 240.453H173.409C173.138 240.453 172.911 240.54 172.736 240.709C172.56 240.879 172.405 241.088 172.277 241.332C172.149 241.577 172.032 241.833 171.928 242.098C171.827 242.363 171.708 242.593 171.57 242.784C171.693 242.772 171.839 242.76 172.009 242.754C172.178 242.748 172.455 242.745 172.837 242.745C173.218 242.745 173.779 242.748 174.482 242.754C175.182 242.76 176.118 242.763 177.289 242.763L176.389 245.683L176.38 245.677Z" fill="#FF3333"/>
<path d="M187.591 247.742H184.772L183.464 252.072H179.053L183.648 236.859H191.346C191.864 236.859 192.38 236.928 192.898 237.065C193.417 237.202 193.879 237.411 194.287 237.697C194.695 237.983 195.029 238.343 195.288 238.778C195.548 239.214 195.676 239.726 195.676 240.31C195.676 241.115 195.562 241.905 195.339 242.679C195.115 243.454 194.779 244.184 194.329 244.864C194.016 245.352 193.646 245.82 193.217 246.261C192.788 246.702 192.314 247.06 191.799 247.334L193.351 252.072H189.063L187.594 247.742H187.591ZM187.957 244.616C188.339 244.616 188.655 244.589 188.908 244.536C189.158 244.482 189.37 244.408 189.54 244.312C189.71 244.217 189.853 244.104 189.969 243.976C190.085 243.847 190.204 243.713 190.327 243.576C190.639 243.237 190.881 242.855 191.051 242.432C191.221 242.009 191.307 241.562 191.307 241.085C191.307 240.921 191.277 240.751 191.215 240.575C191.152 240.4 191.069 240.239 190.958 240.096C190.848 239.953 190.717 239.836 190.559 239.747C190.401 239.658 190.228 239.613 190.037 239.613H187.218L185.708 244.616H187.954H187.957Z" fill="#FF3333"/>
<path d="M200.587 248.067C200.73 248.216 200.903 248.311 201.108 248.353C202.253 248.517 203.391 248.595 204.529 248.589C205.665 248.583 206.791 248.469 207.909 248.252L206.827 252.031C203.996 252.466 201.156 252.528 198.31 252.215C197.669 252.147 197.148 251.935 196.749 251.584C196.346 251.229 196.045 250.8 195.84 250.296C195.634 249.793 195.512 249.247 195.473 248.663C195.431 248.079 195.458 247.528 195.554 247.009C195.661 246.437 195.798 245.784 195.962 245.048C196.126 244.312 196.331 243.567 196.585 242.813C196.835 242.056 197.133 241.32 197.473 240.599C197.812 239.878 198.218 239.234 198.689 238.668C199.159 238.102 199.693 237.652 200.292 237.309C200.891 236.97 201.57 236.8 202.333 236.8H211.36L210.257 240.456H203.498C203.293 240.456 203.102 240.516 202.926 240.629C202.75 240.745 202.613 240.891 202.518 241.067C201.946 242.059 201.484 243.105 201.129 244.202C200.775 245.299 200.536 246.419 200.414 247.561C200.387 247.751 200.444 247.921 200.587 248.07V248.067Z" fill="#FF3333"/>
<path d="M213.606 236.856H218.16L213.565 252.069H208.949L213.603 236.856H213.606Z" fill="#FF3333"/>
<path d="M84.5723 236.856H89.1257L84.5306 252.069H79.9146L84.5693 236.856H84.5723Z" fill="black"/>
<path d="M222.838 248.845L221 252.072H216.202L223.595 239.738C224.018 239.044 224.43 238.501 224.832 238.114C225.234 237.727 225.604 237.437 225.947 237.247C226.286 237.056 226.578 236.94 226.826 236.898C227.073 236.856 227.24 236.836 227.335 236.836H231.746V252.069H227.517V248.842H222.841L222.838 248.845ZM227.594 246.085V240.346L224.388 246.085H227.594Z" fill="#FF3333"/>
<path d="M238.665 248.008C238.841 248.225 239.026 248.356 239.216 248.395C240.373 248.571 241.517 248.618 242.646 248.538C243.776 248.458 244.905 248.3 246.038 248.067L244.956 251.846C243.445 252.105 241.994 252.254 240.605 252.296C239.216 252.337 237.822 252.254 236.418 252.051C235.22 251.902 234.401 251.381 233.957 250.49C233.513 249.599 233.498 248.377 233.906 246.824C233.918 246.744 233.939 246.649 233.969 246.538C233.995 246.428 234.043 246.255 234.112 246.017C234.18 245.778 234.273 245.448 234.386 245.028C234.502 244.604 234.666 244.038 234.875 243.323C235.086 242.608 235.354 241.723 235.682 240.668C236.01 239.613 236.403 238.337 236.865 236.839H241.419L238.847 245.355C238.778 245.71 238.701 246.05 238.611 246.377C238.522 246.705 238.465 247.045 238.439 247.4C238.412 247.59 238.486 247.796 238.662 248.014L238.665 248.008Z" fill="#FF3333"/>
<path d="M167.482 16.241C200.351 16.241 227.115 42.3726 228.134 74.9947H69.1477C69.6424 59.004 76.3295 44.5719 86.8877 34.0167C97.869 23.0324 113.037 16.244 129.794 16.244H167.479M167.482 10.281H129.797C120.803 10.281 112.075 12.0422 103.856 15.5198C95.9201 18.8783 88.7919 23.6821 82.674 29.8C70.6377 41.8332 63.7182 57.818 63.1907 74.8069L63 80.9517H234.281L234.091 74.8069C233.548 57.4514 226.381 41.2223 213.904 29.1057C201.4 16.9651 184.915 10.278 167.482 10.278V10.281Z" fill="white"/>
<path d="M97.9935 24.734C98.5209 24.734 99.0365 24.591 99.4924 24.3257C108.403 19.1852 118.74 16.241 129.769 16.241H167.454C178.483 16.241 188.827 19.1852 197.74 24.3257C198.196 24.588 198.712 24.734 199.239 24.734H199.248C202.291 24.734 203.39 20.6991 200.756 19.1733C190.731 13.3742 179.312 10.281 167.454 10.281H129.769C120.776 10.281 112.047 12.0422 103.828 15.5198C101.298 16.5897 98.8487 17.8085 96.4886 19.1703C93.8513 20.6931 94.9449 24.734 97.9935 24.734Z" fill="#FF3333"/>
</svg>
